<svg width="64" height="64" viewBox="0 0 64 64" fill="none" xmlns="http://www.w3.org/2000/svg">
    <path d="M31.8088 63.5268C37.9455 63.5268 43.6527 61.7471 48.4394 58.7401H15.1167C19.9648 61.7471 25.672 63.5268 31.8088 63.5268Z" fill="#E30613"/>
    <path d="M15.178 58.74H48.5006C50.7099 57.3899 52.7351 55.733 54.5147 53.892H9.10254C10.8822 55.733 12.9687 57.3286 15.178 58.74Z" fill="white"/>
    <path d="M9.10266 53.8919H54.5148C55.9263 52.4191 57.2151 50.7622 58.3811 49.0439H5.29785C6.40247 50.7622 7.6912 52.3577 9.10266 53.8919Z" fill="#E30613"/>
    <path d="M5.23647 48.9826H58.3196C59.3015 47.4484 60.222 45.8528 60.8971 44.1345H2.59766C3.39544 45.8528 4.25458 47.4484 5.23647 48.9826Z" fill="white"/>
    <path d="M2.6592 44.1345H60.9586C61.6337 42.6003 62.1246 40.9434 62.4928 39.2864H1.125C1.49321 40.9434 1.98415 42.6003 2.6592 44.1345Z" fill="#E30613"/>
    <path d="M0.327148 34.4385C0.449884 36.0954 0.695348 37.691 1.12492 39.2865H62.4927C62.8609 37.691 63.1064 36.0954 63.2906 34.4385H31.8088H0.327148Z" fill="white"/>
    <path d="M31.8086 34.4384H63.2903C63.3517 33.5793 63.413 32.7815 63.413 31.9224C63.413 31.1246 63.3517 30.3268 63.2903 29.5904H31.8086V34.4384Z" fill="#E30613"/>
    <path d="M31.8086 29.5904H63.2903C63.1676 27.9334 62.9221 26.3379 62.5539 24.7423H31.8086V29.5904Z" fill="white"/>
    <path d="M31.8086 24.681H62.5539C62.1856 23.0241 61.6333 21.3671 61.0197 19.8329H31.8086V24.681Z" fill="#E30613"/>
    <path d="M31.8086 19.8329H61.0197C60.3446 18.1146 59.4241 16.5191 58.4422 14.9849H31.8086V19.8329Z" fill="white"/>
    <path d="M31.8086 14.9848H58.4422C57.3376 13.2665 56.0489 11.6095 54.6374 10.1367H31.8086V14.9848Z" fill="#E30613"/>
    <path d="M31.8089 10.1367H54.6377C52.858 8.29566 50.8943 6.63873 48.6851 5.28864H31.7476V10.1367H31.8089Z" fill="white"/>
    <path d="M31.8086 5.22733H48.7461C44.2662 2.40441 38.9886 0.624744 33.4041 0.379272H31.8699V5.22733H31.8086Z" fill="#E30613"/>
    <path d="M31.8087 29.5904H28.2494L28.6176 30.5723H29.9677L28.9245 31.4314L29.2313 32.7815L28.0653 32.0451L26.8993 32.7815L27.2061 31.4314L26.1629 30.5723H27.513L27.8812 29.5904H25.1196C25.0582 29.5904 22.9104 29.5904 22.9104 29.5904C22.849 29.5904 20.0875 29.5904 20.0875 29.5904L20.4557 30.5723H21.8057L20.7625 31.4314L21.0693 32.7815L19.9033 32.0451L18.7374 32.7815L19.0442 31.4314L18.001 30.5723H19.3511L19.7192 29.5904H16.9577C16.8963 29.5904 14.7485 29.5904 14.7485 29.5904C14.6871 29.5904 11.9255 29.5904 11.9255 29.5904L12.2938 30.5723H13.6439L12.6006 31.4314L12.9074 32.7815L11.7414 32.0451L10.5755 32.7815L10.8823 31.4314L9.83904 30.5723H11.1891L11.5573 29.5904H8.79578C8.73441 29.5904 6.58656 29.5904 6.58656 29.5904C6.52519 29.5904 3.76361 29.5904 3.76361 29.5904L4.13184 30.5723H5.4819L4.43868 31.4314L4.74552 32.7815L3.57952 32.0451L2.41351 32.7815L2.72035 31.4314L1.67713 30.5723H3.02719L3.39542 29.5904H0.633868C0.572501 29.5904 0.204286 29.5904 0.204286 29.5904C0.142918 30.3882 0.081543 31.1246 0.081543 31.9224C0.081543 32.7815 0.142918 33.5793 0.204286 34.4384H31.686V29.5904H31.8087Z" fill="#002B90"/>
    <path d="M22.9717 29.5903H25.1196L24.015 28.9153L22.9717 29.5903Z" fill="#002B90"/>
    <path d="M14.8096 29.5903H17.0188L15.9142 28.9153L14.8096 29.5903Z" fill="#002B90"/>
    <path d="M29.2314 26.031L28.0654 25.2946L26.8994 26.031L27.2062 24.7423H20.7626L21.0695 26.031L19.9035 25.2946L18.7375 26.031L19.0443 24.7423H12.6007L12.9076 26.031L11.7415 25.2946L10.5756 26.031L10.8824 24.7423H4.4388L4.74564 26.031L3.57964 25.2946L2.41363 26.031L2.72047 24.7423H0.940827C0.756723 25.6015 0.572627 26.522 0.449892 27.4425H1.37041L0.327148 28.3016L0.633988 29.5904H3.39554L3.51828 29.1608L3.64099 29.5904H6.40254L6.70938 28.3016L5.66616 27.4425H7.01622L7.50719 26.0924L7.99813 27.4425H9.34822L8.30496 28.3016L8.6118 29.5904H11.3734L11.4961 29.1608L11.6188 29.5904H14.3804L14.6872 28.3016L13.644 27.4425H14.994L15.485 26.0924L15.9759 27.4425H17.326L16.2828 28.3016L16.5896 29.5904H19.3512L19.4739 29.1608L19.5966 29.5904H22.3582L22.665 28.3016L21.6218 27.4425H22.9718L23.4628 26.0924L23.9537 27.4425H25.3039L24.2606 28.3016L24.5674 29.5904H27.3289L27.4517 29.1608L27.5744 29.5904H31.1338V24.7423H28.2495L29.2314 26.031Z" fill="#002B90"/>
    <path d="M0.327148 29.5903H0.69534L0.327148 29.3448C0.327148 29.4062 0.327148 29.4676 0.327148 29.5903Z" fill="#002B90"/>
    <path d="M6.70947 29.5903H8.85735L7.75273 28.9153L6.70947 29.5903Z" fill="#002B90"/>
    <path d="M24.5672 20.692H25.9173L24.874 21.5512L25.1809 22.9013L24.0149 22.1649L22.8489 22.9013L23.1558 21.5512L22.1125 20.692H23.4626L23.7694 19.8329H16.0371L16.3439 20.692H17.694L16.6508 21.5512L16.9576 22.9013L15.7916 22.1649L14.6256 22.9013L14.9325 21.5512L13.8892 20.692H15.2393L15.5461 19.8329H7.81382L8.12066 20.692H9.47072L8.4275 21.5512L8.73433 22.9013L7.56833 22.1649L6.40233 22.9013L6.70917 21.5512L5.66594 20.692H7.01601L7.32284 19.8329H2.35207C1.67702 21.3671 1.18608 23.024 0.817871 24.6809H2.59755L1.55429 23.7604H2.90439L3.39533 22.4103L3.88626 23.7604H5.23636L4.1931 24.6196H10.6367L9.59346 23.699H10.9436L11.4345 22.349L11.9254 23.699H13.2755L12.2323 24.5582H18.6759L17.6327 23.6377H18.9827L19.4737 22.2876L19.9646 23.6377H21.3147L20.2714 24.4968H26.7151L25.6718 23.5763H27.0219L27.5129 22.2262L28.0038 23.5763H29.3539L28.3107 24.4355H31.1949V19.5874H23.6467L24.5672 20.692Z" fill="#002B90"/>
    <path d="M25.181 16.1508L24.015 15.4144L22.849 16.1508L23.1559 14.9235H16.7736L17.0804 16.1508L15.9144 15.4144L14.7485 16.1508L15.0553 14.9235H8.67305L8.97989 16.1508L7.81392 15.4144L6.64792 16.1508L6.95476 14.9235H5.23646C4.86826 15.4758 4.50006 16.0895 4.13185 16.7031L4.25456 17.0713H5.60466L4.5614 17.9305L4.86824 19.2806L3.70227 18.5442L2.96585 18.9737C2.84311 19.2192 2.72039 19.526 2.59766 19.7715H7.56843L7.75253 19.2806L7.93663 19.7715H15.669L15.8531 19.2806L16.0372 19.7715H23.7696L23.9536 19.2806L24.1377 19.7715H31.686V14.9235H24.7514L25.181 16.1508ZM12.9688 19.2806L11.8028 18.5442L10.6368 19.2806L10.9437 17.9305L9.9004 17.0713H11.2505L11.7414 15.7212L12.2324 17.0713H13.5825L12.5392 17.9305L12.9688 19.2806ZM21.1307 19.2806L19.9647 18.5442L18.7987 19.2806L19.1056 17.9305L18.0623 17.0713H19.4124L19.9034 15.7212L20.3943 17.0713H21.7444L20.7012 17.9305L21.1307 19.2806ZM27.5743 17.0713L28.0653 15.7212L28.5562 17.0713H29.9063L28.863 17.9305L29.1699 19.2806L28.004 18.5442L26.8379 19.2806L27.1448 17.9305L26.1015 17.0713H27.5743Z" fill="#002B90"/>
    <path d="M28.6175 10.3822H29.9676L28.9243 11.2413L29.2312 12.5914L28.0652 11.855L26.8992 12.5914L27.206 11.2413L26.1628 10.3822H27.5129L27.6356 10.1367H20.3328L20.4556 10.3822H21.8056L20.7624 11.2413L21.0692 12.5914L19.9032 11.855L18.7373 12.5914L19.0441 11.2413L18.0008 10.3822H19.3509L19.4737 10.1367H12.1709L12.2936 10.3822H13.6437L12.6005 11.2413L12.9073 12.5914L11.7413 11.855L10.5753 12.5914L10.8822 11.2413L9.83893 10.3822H11.189L11.3117 10.1367H8.85702C7.44556 11.6095 6.15687 13.2665 5.05225 14.9848H6.77054C6.77054 14.862 5.78863 14.0029 5.78863 14.0029H7.13873L7.62966 12.6528L8.12064 14.0029H9.4707L8.42748 14.862C8.42748 14.9848 14.8711 14.9848 14.8711 14.9848C14.8711 14.862 13.8892 14.0029 13.8892 14.0029H15.2393L15.7302 12.6528L16.2212 14.0029H17.5713L16.528 14.862C16.528 14.9848 22.9716 14.9848 22.9716 14.9848C22.9716 14.862 21.9897 14.0029 21.9897 14.0029H23.3398L23.8308 12.6528L24.3218 14.0029H25.6718L24.6286 14.862C24.6286 14.9848 31.5631 14.9848 31.5631 14.9848V10.1367H28.2492L28.6175 10.3822Z" fill="#002B90"/>
    <path d="M8.97998 10.1368H11.4347L11.8643 9.03216L12.2939 10.1368H19.5966L20.0262 9.03216L20.4558 10.1368H27.7586L28.1881 9.03216L28.6177 10.1368H31.9315V5.22736H29.2314L29.3541 5.84103L28.3722 5.22736H28.004L27.0221 5.84103L27.1449 5.22736H21.0081L21.1308 5.84103L20.1489 5.22736H19.7807L18.7988 5.84103L18.9216 5.22736H14.8713C12.7234 6.63882 10.7596 8.29575 8.97998 10.1368ZM23.5242 7.25249L24.0151 5.9024L24.506 7.25249H25.8562L24.8129 8.11164L25.1197 9.46174L23.9537 8.72532L22.7878 9.46174L23.0946 8.11164L22.0513 7.25249H23.5242ZM15.3622 7.25249L15.8532 5.9024L16.3441 7.25249H17.6942L16.651 8.11164L16.9578 9.46174L15.7918 8.72532L14.6258 9.46174L14.9327 8.11164L13.8894 7.25249H15.3622Z" fill="#002B90"/>
    <path d="M19.7808 5.22738H20.149L19.9648 5.16602L19.7808 5.22738Z" fill="#002B90"/>
    <path d="M21.8671 3.69313L20.8238 4.55228L21.0079 5.2887H27.1447L27.3288 4.55228L26.2855 3.69313H27.6356L28.1266 2.34304L28.6175 3.69313H29.9676L28.9244 4.55228L29.1084 5.2887H31.8086V0.379272H30.2744C26.7151 0.563376 23.2785 1.29979 20.0874 2.58851L20.5169 3.69313H21.8671Z" fill="#002B90"/>
    <path d="M27.9424 5.22738H28.2492L28.1265 5.16602L27.9424 5.22738Z" fill="#002B90"/>
    <path d="M19.167 4.55228L18.1238 3.69313H19.4739L19.842 2.71124C18.1237 3.44766 16.4668 4.30681 14.9326 5.28869H18.9829L19.167 4.55228Z" fill="#002B90"/>
    <path d="M14.7486 9.4618L15.9146 8.72539L17.0806 9.4618L16.7124 8.17308L17.7556 7.25256H16.4056L15.9146 5.90247L15.3623 7.25256H14.0122L15.0555 8.17308L14.7486 9.4618Z" fill="white"/>
    <path d="M22.8489 9.4618L24.0149 8.72539L25.1808 9.4618L24.874 8.17308L25.9172 7.25256H24.5671L24.0149 5.90247L23.5239 7.25256H22.1738L23.2171 8.17308L22.8489 9.4618Z" fill="white"/>
    <path d="M18.7988 5.84103L19.7807 5.22736H18.9829L18.7988 5.84103Z" fill="white"/>
    <path d="M21.1308 5.84103L20.9467 5.22736H20.1489L21.1308 5.84103Z" fill="white"/>
    <path d="M18.1235 3.69312L19.1668 4.55227L18.9827 5.28869H19.8418L20.026 5.16595L20.21 5.28869H21.0692L20.885 4.55227L21.9283 3.69312H20.5782L20.1487 2.5885C20.0873 2.64987 19.9645 2.64987 19.9032 2.64987L19.535 3.63175L18.1235 3.69312Z" fill="white"/>
    <path d="M26.9604 5.84103L27.9423 5.22736H27.0832L26.9604 5.84103Z" fill="white"/>
    <path d="M29.2315 5.84103L29.1087 5.22736H28.2495L29.2315 5.84103Z" fill="white"/>
    <path d="M29.9675 3.69302H28.6175L28.1265 2.28156L27.5742 3.69302H26.2241L27.2673 4.55216L27.0833 5.22721H27.9424L28.1265 5.16584L28.2492 5.22721H29.1084L28.9243 4.55216L29.9675 3.69302Z" fill="white"/>
    <path d="M7.75239 15.4758L8.9184 16.1509L8.61156 14.9849H6.89326L6.58643 16.1509L7.75239 15.4758Z" fill="white"/>
    <path d="M8.61146 14.8621L9.65473 14.0029H8.30463L7.81369 12.6528L7.32272 14.0029H5.97266L7.01588 14.8621C7.01588 14.9848 8.73421 14.9848 8.73421 14.9848L8.61146 14.8621Z" fill="white"/>
    <path d="M15.9145 15.4758L17.0805 16.1509L16.7737 14.9849H15.0554L14.7485 16.1509L15.9145 15.4758Z" fill="white"/>
    <path d="M16.7121 14.8621L17.7553 14.0029H16.4052L15.9143 12.6528L15.4233 14.0029H14.0732L15.1165 14.8621C15.1165 14.9848 16.8348 14.9848 16.8348 14.9848L16.7121 14.8621Z" fill="white"/>
    <path d="M24.0151 15.4758L25.1811 16.1509L24.8742 14.9849H23.156L22.8491 16.1509L24.0151 15.4758Z" fill="white"/>
    <path d="M24.8741 14.8621L25.9174 14.0029H24.5673L24.0764 12.6528L23.5854 14.0029H22.2354L23.2786 14.8621C23.2786 14.9848 24.9969 14.9848 24.9969 14.9848L24.8741 14.8621Z" fill="white"/>
    <path d="M9.96191 10.3822L11.0051 11.2413L10.6983 12.5914L11.8643 11.855L12.9689 12.5914L12.6621 11.2413L13.7053 10.3822H12.3552L12.2325 10.1367H11.4347L11.312 10.3822H9.96191Z" fill="white"/>
    <path d="M11.8642 9.0321L11.4346 10.1367H12.2323L11.8642 9.0321Z" fill="white"/>
    <path d="M18.1235 10.3822L19.1668 11.2413L18.7986 12.5914L19.9645 11.855L21.1305 12.5914L20.8237 11.2413L21.867 10.3822H20.4555L20.3942 10.1367H19.535L19.4736 10.3822H18.1235Z" fill="white"/>
    <path d="M19.9647 9.0321L19.5352 10.1367H20.3943L19.9647 9.0321Z" fill="white"/>
    <path d="M26.2241 10.3822L27.2673 11.2413L26.9605 12.5914L28.1265 11.855L29.2312 12.5914L28.9243 11.2413L29.9675 10.3822H28.6175L28.4947 10.1367H27.697L27.5742 10.3822H26.2241Z" fill="white"/>
    <path d="M28.1268 9.0321L27.6973 10.1367H28.495L28.1268 9.0321Z" fill="white"/>
    <path d="M5.91162 20.6921L6.95488 21.5512L6.58669 22.9013L7.75266 22.1649L8.91866 22.9013L8.61182 21.5512L9.65508 20.6921H8.30498L7.93675 19.8329H7.56856L7.26172 20.6921H5.91162Z" fill="white"/>
    <path d="M7.75246 19.342L7.56836 19.833H7.93655L7.75246 19.342Z" fill="white"/>
    <path d="M14.0122 20.6921L15.0555 21.5512L14.7486 22.9013L15.9146 22.1649L17.0806 22.9013L16.7124 21.5512L17.7556 20.6921H16.4056L16.0987 19.8329H15.7305L15.3623 20.6921H14.0122Z" fill="white"/>
    <path d="M15.9146 19.342L15.7305 19.833H16.0987L15.9146 19.342Z" fill="white"/>
    <path d="M22.1738 20.6921L23.2171 21.5512L22.8489 22.9013L24.0149 22.1649L25.1808 22.9013L24.874 21.5512L25.9172 20.6921H24.5671L24.1989 19.8329H23.8307L23.5239 20.6921H22.1738Z" fill="white"/>
    <path d="M24.0152 19.342L23.8311 19.833H24.1992L24.0152 19.342Z" fill="white"/>
    <path d="M4.86838 19.2806L4.56154 17.9305L5.6048 17.0713H4.2547L4.13199 16.7031C3.70242 17.4395 3.39555 18.2373 3.02734 18.9737L3.76377 18.5442L4.86838 19.2806Z" fill="white"/>
    <path d="M12.3552 17.0714L11.8643 15.7213L11.312 17.0714H9.96191L11.0051 17.9919L10.6983 19.2806L11.8643 18.6056L12.9689 19.2806L12.6621 17.9919L13.7053 17.0714H12.3552Z" fill="white"/>
    <path d="M20.4555 17.0714L19.9645 15.7213L19.4736 17.0714H18.1235L19.1668 17.9919L18.7986 19.2806L19.9645 18.6056L21.1305 19.2806L20.8237 17.9919L21.867 17.0714H20.4555Z" fill="white"/>
    <path d="M26.9605 19.2806L28.1265 18.6056L29.2312 19.2806L28.9243 17.9919L29.9675 17.0714H28.6175L28.1265 15.7213L27.5742 17.0714H26.2241L27.2673 17.9919L26.9605 19.2806Z" fill="white"/>
    <path d="M1.49311 27.3812H0.572597C0.511229 27.9948 0.388516 28.6699 0.327148 29.2836L0.69534 29.529C0.756708 29.529 0.449892 28.2403 0.449892 28.2403L1.49311 27.3812Z" fill="white"/>
    <path d="M9.65473 27.3811H8.30463L7.81369 26.031L7.32272 27.3811H5.97266L7.01588 28.2402L6.70904 29.529C6.77041 29.529 7.87504 28.8539 7.87504 28.8539L8.97966 29.529C9.04102 29.529 8.73421 28.2402 8.73421 28.2402L9.65473 27.3811Z" fill="white"/>
    <path d="M17.7553 27.3811H16.4052L15.9143 26.031L15.4233 27.3811H14.0732L15.1165 28.2402L14.8097 29.529C14.871 29.529 15.9757 28.8539 15.9757 28.8539L17.0803 29.529C17.1416 29.529 16.8348 28.2402 16.8348 28.2402L17.7553 27.3811Z" fill="white"/>
    <path d="M25.9174 27.3811H24.5673L24.0764 26.031L23.5854 27.3811H22.2354L23.2786 28.2402L22.9717 29.529C23.0331 29.529 24.1377 28.8539 24.1377 28.8539L25.2424 29.529C25.3038 29.529 24.9969 28.2402 24.9969 28.2402L25.9174 27.3811Z" fill="white"/>
    <path d="M3.70214 25.2945L4.8681 26.0309L4.56126 24.6808H2.84297L2.53613 26.0309L3.70214 25.2945Z" fill="white"/>
    <path d="M4.56117 24.6809L5.60443 23.8218H4.25433L3.7634 22.4717L3.27246 23.8218H1.92236L2.96562 24.6809C2.84289 24.6809 4.56117 24.6809 4.56117 24.6809Z" fill="white"/>
    <path d="M11.8642 25.2945L12.9689 26.0309L12.662 24.6808H11.0051L10.6982 26.0309L11.8642 25.2945Z" fill="white"/>
    <path d="M12.6618 24.6809L13.705 23.8218H12.3549L11.864 22.4717L11.373 23.8218H10.0229L11.0662 24.6809C11.0048 24.6809 12.6618 24.6809 12.6618 24.6809Z" fill="white"/>
    <path d="M19.9648 25.2945L21.1308 26.0309L20.824 24.6808H19.1057L18.7988 26.0309L19.9648 25.2945Z" fill="white"/>
    <path d="M20.8239 24.6809L21.8672 23.8218H20.517L20.0261 22.4717L19.5352 23.8218H18.1851L19.2283 24.6809C19.1056 24.6809 20.8239 24.6809 20.8239 24.6809Z" fill="white"/>
    <path d="M28.1265 25.2945L29.2311 26.0309L28.9243 24.6808H27.2673L26.9604 26.0309L28.1265 25.2945Z" fill="white"/>
    <path d="M28.9245 24.6809L29.9677 23.8218H28.6177L28.1267 22.4717L27.6357 23.8218H26.2856L27.3289 24.6809C27.2675 24.6809 28.9245 24.6809 28.9245 24.6809Z" fill="white"/>
    <path d="M3.21143 30.5109H1.86133L2.8432 31.3701L2.53636 32.7202L3.70236 31.9837L4.86833 32.7202L4.56149 31.3701L5.5434 30.5109H4.1933L3.82511 29.5904H3.57962L3.21143 30.5109Z" fill="white"/>
    <path d="M3.57959 29.5904H3.82508L3.70233 29.1608L3.57959 29.5904Z" fill="white"/>
    <path d="M11.312 30.5109H9.96191L11.0051 31.3701L10.6983 32.7202L11.8643 31.9837L12.9689 32.7202L12.6621 31.3701L13.7053 30.5109H12.3552L11.987 29.5904H11.6802L11.312 30.5109Z" fill="white"/>
    <path d="M11.6802 29.5904H11.987L11.8643 29.1608L11.6802 29.5904Z" fill="white"/>
    <path d="M19.4736 30.5109H18.1235L19.1668 31.3701L18.7986 32.7202L19.9645 31.9837L21.1305 32.7202L20.8237 31.3701L21.867 30.5109H20.4555L20.1487 29.5904H19.8418L19.4736 30.5109Z" fill="white"/>
    <path d="M19.8418 29.5904H20.1486L19.9645 29.1608L19.8418 29.5904Z" fill="white"/>
    <path d="M27.5742 30.5109H26.2241L27.2673 31.3701L26.9605 32.7202L28.1265 31.9837L29.2312 32.7202L28.9243 31.3701L29.9675 30.5109H28.6175L28.2492 29.5904H27.9424L27.5742 30.5109Z" fill="white"/>
    <path d="M27.9424 29.5904H28.2492L28.1265 29.1608L27.9424 29.5904Z" fill="white"/>
</svg>
