<?xml version="1.0" encoding="utf-8"?>
<!-- Svg Vector Icons : http://www.onlinewebfonts.com/icon -->
<!DOCTYPE svg PUBLIC "-//W3C//DTD SVG 1.1//EN" "http://www.w3.org/Graphics/SVG/1.1/DTD/svg11.dtd">
<svg version="1.1" xmlns="http://www.w3.org/2000/svg" xmlns:xlink="http://www.w3.org/1999/xlink" x="0px" y="0px" viewBox="0 0 256 256" enable-background="new 0 0 256 256" xml:space="preserve">
<metadata> Svg Vector Icons : http://www.onlinewebfonts.com/icon </metadata>
<g><g><path fill="#000000" d="M128,10.7C62.8,10.7,10,63.2,10,128c0,64.8,52.8,117.3,118,117.3c65.2,0,118-52.5,118-117.3C246,63.2,193.2,10.7,128,10.7L128,10.7L128,10.7z M203.4,203c-9.8,9.8-21.3,17.4-34,22.8c-13.2,5.5-27.2,8.3-41.6,8.3c-14.4,0-28.4-2.8-41.6-8.3c-12.7-5.3-24.2-13-34-22.8c-9.9-9.8-17.6-21.1-23-33.8c-5.6-13.1-8.4-27-8.4-41.4c0-14.4,2.8-28.3,8.4-41.4c5.4-12.6,13.1-24,23-33.8c9.8-9.8,21.3-17.4,34-22.8c13.2-5.5,27.2-8.3,41.7-8.3s28.4,2.8,41.6,8.3c12.7,5.3,24.2,13,34,22.8c9.8,9.8,17.6,21.1,22.9,33.8c5.6,13.1,8.4,27,8.4,41.4c0,14.4-2.8,28.3-8.4,41.4C220.9,181.9,213.2,193.2,203.4,203L203.4,203L203.4,203z M170.9,138.4c-7.1-4.8-14.9-8.3-23-10.5c13.5-7.5,22.6-21.8,22.6-38.1c0-24.1-20-43.8-44.6-43.8c-24.6,0-44.6,19.6-44.6,43.8c0,17,9.9,31.7,24.3,39c-11.8,3.6-22.5,10-31.3,18.8c-10.5,10.5-17.5,23.7-20.3,38.1c-0.1,0.3-0.1,0.7-0.1,1c0,2.2,1.8,4,4.1,4c2,0,4.7-2.4,5.1-4.2c5.1-26.7,33.4-48.1,52.8-50c6.2-0.6,22,0,22,0s16.6,1.9,27.5,9.2c14.8,10,24.2,23.4,27.5,40.7c0.4,1.9,3.6,4,5.6,4c2.2,0,4.1-1.8,4.1-4c0-0.2,0-0.4,0-0.6C198.7,166.3,187.5,149.5,170.9,138.4z M91.6,89.8c0-18.7,15.4-33.8,34.4-33.8c19,0,34.4,15.2,34.4,33.8c0,17.5-13.6,32-31,33.7c-1.8,0-3.6,0-5.4,0.1C106,122.6,91.6,107.8,91.6,89.8L91.6,89.8L91.6,89.8z"/></g></g>
</svg>